<svg width="24" height="24" viewBox="0 0 24 24" fill="none" xmlns="http://www.w3.org/2000/svg">
<path d="M11.9953 17.5023C11.7202 17.5023 11.4951 17.7274 11.4981 18.0025C11.4981 18.2776 11.7232 18.5027 11.9983 18.5027C12.2734 18.5027 12.4985 18.2776 12.4985 18.0025C12.4985 17.7274 12.2734 17.5023 11.9953 17.5023" stroke="#818385" stroke-width="1.5" stroke-linecap="round" stroke-linejoin="round"/>
<path d="M11.9953 11.4998C11.7202 11.4998 11.4951 11.7248 11.4981 12C11.4981 12.2751 11.7232 12.5002 11.9983 12.5002C12.2734 12.5002 12.4985 12.2751 12.4985 12C12.4985 11.7248 12.2734 11.4998 11.9953 11.4998" stroke="#818385" stroke-width="1.5" stroke-linecap="round" stroke-linejoin="round"/>
<path d="M11.9953 5.49731C11.7202 5.49731 11.4951 5.72241 11.4981 5.99752C11.4981 6.27264 11.7232 6.49773 11.9983 6.49773C12.2734 6.49773 12.4985 6.27264 12.4985 5.99752C12.4985 5.72241 12.2734 5.49731 11.9953 5.49731" stroke="#818385" stroke-width="1.5" stroke-linecap="round" stroke-linejoin="round"/>
</svg>
