<svg width="32" height="32" viewBox="0 0 32 32" fill="none" xmlns="http://www.w3.org/2000/svg">
<rect width="32" height="32" rx="16" fill="white"/>
<path d="M15.9972 21.5023C15.7221 21.5023 15.497 21.7274 15.5 22.0025C15.5 22.2776 15.7251 22.5027 16.0002 22.5027C16.2754 22.5027 16.5004 22.2776 16.5004 22.0025C16.5004 21.7274 16.2754 21.5023 15.9972 21.5023" stroke="#323232" stroke-width="1.5" stroke-linecap="round" stroke-linejoin="round"/>
<path d="M15.9972 15.4998C15.7221 15.4998 15.497 15.7248 15.5 16C15.5 16.2751 15.7251 16.5002 16.0002 16.5002C16.2754 16.5002 16.5004 16.2751 16.5004 16C16.5004 15.7248 16.2754 15.4998 15.9972 15.4998" stroke="#323232" stroke-width="1.5" stroke-linecap="round" stroke-linejoin="round"/>
<path d="M15.9972 9.49731C15.7221 9.49731 15.497 9.72241 15.5 9.99752C15.5 10.2726 15.7251 10.4977 16.0002 10.4977C16.2754 10.4977 16.5004 10.2726 16.5004 9.99752C16.5004 9.72241 16.2754 9.49731 15.9972 9.49731" stroke="#323232" stroke-width="1.5" stroke-linecap="round" stroke-linejoin="round"/>
</svg>
