<svg width="24" height="24" viewBox="0 0 24 24" fill="none" xmlns="http://www.w3.org/2000/svg">
<path d="M14.0613 18.4426C14.6473 19.0286 14.6473 19.9785 14.0613 20.5645C13.4754 21.1504 12.5254 21.1504 11.9395 20.5645C11.3535 19.9785 11.3535 19.0286 11.9395 18.4426C12.2208 18.1611 12.6024 18.0029 13.0004 18.0029C13.3984 18.0029 13.78 18.1611 14.0613 18.4426" stroke="white" stroke-width="1.5" stroke-linecap="round" stroke-linejoin="round"/>
<path d="M19.5633 17.4416C20.1492 18.0276 20.1492 18.9776 19.5633 19.5635C18.9773 20.1495 18.0273 20.1495 17.4414 19.5635C16.8555 18.9776 16.8555 18.0276 17.4414 17.4416C17.7227 17.1601 18.1044 17.002 18.5023 17.002C18.9003 17.002 19.282 17.1601 19.5633 17.4416" stroke="white" stroke-width="1.5" stroke-linecap="round" stroke-linejoin="round"/>
<path d="M3.9971 18.0027V18.0027C3.99269 16.94 4.41287 15.9196 5.16429 15.1682C5.91572 14.4168 6.93614 13.9966 7.99881 14.001H11.1112" stroke="white" stroke-width="1.5" stroke-linecap="round" stroke-linejoin="round"/>
<circle cx="10.9997" cy="6.99776" r="4.00167" stroke="white" stroke-width="1.5" stroke-linecap="round" stroke-linejoin="round"/>
<path d="M14.501 19.3722V14.9016C14.5007 14.4924 14.7501 14.1245 15.1302 13.9732L18.6317 12.5726C18.9398 12.4493 19.289 12.4868 19.5639 12.6728C19.8387 12.8589 20.0033 13.1691 20.0033 13.501V18.3526" stroke="white" stroke-width="1.5" stroke-linecap="round" stroke-linejoin="round"/>
</svg>
