<svg width="24" height="24" viewBox="0 0 24 24" fill="none" xmlns="http://www.w3.org/2000/svg">
<path fill-rule="evenodd" clip-rule="evenodd" d="M18.9566 21.004H5.04283C3.93737 21.004 3.04199 20.1087 3.04199 19.0032V10.9999C3.04199 9.8944 3.93737 8.99902 5.04283 8.99902H18.9566C20.0621 8.99902 20.9575 9.8944 20.9575 10.9999V19.0032C20.9575 20.1087 20.0611 21.004 18.9566 21.004Z" stroke="white" stroke-width="1.5" stroke-linecap="round" stroke-linejoin="round"/>
<path d="M11.9883 15.4409C12.5746 16.0271 12.5746 16.9775 11.9883 17.5628C11.4021 18.148 10.4517 18.149 9.86644 17.5628C9.2802 16.9765 9.2802 16.0261 9.86644 15.4409C10.4527 14.8556 11.4021 14.8556 11.9883 15.4409" stroke="white" stroke-width="1.5" stroke-linecap="round" stroke-linejoin="round"/>
<path d="M14.3815 12.7948L12.4287 12.1436V16.5024" stroke="white" stroke-width="1.5" stroke-linecap="round" stroke-linejoin="round"/>
<path d="M4.77832 8.9993V7.99888C4.77832 6.89342 5.67369 5.99805 6.77915 5.99805H17.2185C18.324 5.99805 19.2193 6.89342 19.2193 7.99888V8.9993" stroke="white" stroke-width="1.5" stroke-linecap="round" stroke-linejoin="round"/>
<path d="M6.51367 5.99783V4.99742C6.51367 3.89195 7.40904 2.99658 8.51451 2.99658H15.4864C16.5919 2.99658 17.4872 3.89195 17.4872 4.99742V5.99783" stroke="white" stroke-width="1.5" stroke-linecap="round" stroke-linejoin="round"/>
</svg>
