<svg width="24" height="24" viewBox="0 0 24 24" fill="none" xmlns="http://www.w3.org/2000/svg">
<path d="M15.0623 18.4421C15.6483 19.0281 15.6483 19.9781 15.0623 20.564C14.4764 21.1499 13.5264 21.1499 12.9404 20.564C12.3545 19.9781 12.3545 19.0281 12.9404 18.4421C13.2217 18.1606 13.6034 18.0024 14.0014 18.0024C14.3993 18.0024 14.781 18.1606 15.0623 18.4421" stroke="white" stroke-width="1.5" stroke-linecap="round" stroke-linejoin="round"/>
<path d="M20.5643 17.4421C21.1502 18.0281 21.1502 18.9781 20.5643 19.564C19.9783 20.1499 19.0283 20.1499 18.4424 19.564C17.8564 18.9781 17.8564 18.0281 18.4424 17.4421C18.7237 17.1606 19.1053 17.0024 19.5033 17.0024C19.9013 17.0024 20.283 17.1606 20.5643 17.4421" stroke="white" stroke-width="1.5" stroke-linecap="round" stroke-linejoin="round"/>
<path d="M15.501 19.3727V14.9021C15.5007 14.4929 15.7501 14.125 16.1302 13.9737L19.6317 12.5731C19.9398 12.4498 20.289 12.4873 20.5639 12.6733C20.8387 12.8594 21.0033 13.1696 21.0033 13.5015V18.3531" stroke="white" stroke-width="1.5" stroke-linecap="round" stroke-linejoin="round"/>
<path d="M20.0031 3.99679H4.10645" stroke="white" stroke-width="1.5" stroke-linecap="round" stroke-linejoin="round"/>
<path d="M20.0037 7.99826H3.99707" stroke="white" stroke-width="1.5" stroke-linecap="round" stroke-linejoin="round"/>
<path d="M11.9997 12.0002H4.10645" stroke="white" stroke-width="1.5" stroke-linecap="round" stroke-linejoin="round"/>
<path d="M8.99894 12.0002H4.03125" stroke="white" stroke-width="1.5" stroke-linecap="round" stroke-linejoin="round"/>
<path d="M8.99915 16.0017H3.99707" stroke="white" stroke-width="1.5" stroke-linecap="round" stroke-linejoin="round"/>
</svg>
