<svg width="16" height="16" viewBox="0 0 16 16" fill="none" xmlns="http://www.w3.org/2000/svg">
<path d="M8.00002 12.6668C7.43869 12.6668 6.87669 12.5481 6.33069 12.3368" stroke="#C5B0C9" stroke-linecap="round" stroke-linejoin="round"/>
<path d="M13.9213 8.31201C12.66 10.6447 10.33 12.6667 8 12.6667" stroke="#C5B0C9" stroke-linecap="round" stroke-linejoin="round"/>
<path d="M12.7194 5.94727C13.18 6.4866 13.5894 7.0746 13.9214 7.6886C14.026 7.8826 14.026 8.11793 13.9214 8.31193" stroke="#C5B0C9" stroke-linecap="round" stroke-linejoin="round"/>
<path d="M3.33337 12.6668L12.6667 3.3335" stroke="#C5B0C9" stroke-linecap="round" stroke-linejoin="round"/>
<path d="M6.51539 9.4849C5.69539 8.6649 5.69539 7.3349 6.51539 6.5149C7.33539 5.6949 8.66539 5.6949 9.48539 6.5149" stroke="#C5B0C9" stroke-linecap="round" stroke-linejoin="round"/>
<path d="M11.3626 4.6375C10.3313 3.8395 9.16529 3.3335 7.99996 3.3335C5.66996 3.3335 3.33996 5.3555 2.07862 7.68883C1.97396 7.88283 1.97396 8.11816 2.07862 8.31216C2.70929 9.47816 3.60662 10.5662 4.63729 11.3635" stroke="#C5B0C9" stroke-linecap="round" stroke-linejoin="round"/>
</svg>
