<svg width="16" height="16" viewBox="0 0 16 16" fill="none" xmlns="http://www.w3.org/2000/svg">
<g id="Group">
<g id="Group_2">
<path id="Path" fill-rule="evenodd" clip-rule="evenodd" d="M9.442 14L12.4047 13.3413C12.9473 13.2213 13.3333 12.74 13.3333 12.1846V3.84397C13.3333 3.28864 12.9473 2.8073 12.4053 2.6873L9.44267 2.02864C8.702 1.86397 8 2.4273 8 3.18597V12.8433C8 13.6013 8.702 14.1646 9.442 14V14Z" stroke="white" stroke-opacity="0.7" stroke-linecap="round" stroke-linejoin="round"/>
<path id="Path_2" d="M10.0003 7.31995V8.65328" stroke="white" stroke-opacity="0.7" stroke-linecap="round" stroke-linejoin="round"/>
<path id="Path_3" d="M2.66699 10.6666V12.028C2.66699 12.7646 3.26366 13.3613 4.00033 13.3613H6.00033" stroke="white" stroke-opacity="0.7" stroke-linecap="round" stroke-linejoin="round"/>
<path id="Path_4" d="M2.66699 5.33329V3.99996C2.66699 3.26329 3.26366 2.66663 4.00033 2.66663H6.00033" stroke="white" stroke-opacity="0.7" stroke-linecap="round" stroke-linejoin="round"/>
<path id="Path_5" d="M2.66699 7.99996H6.00033" stroke="white" stroke-opacity="0.7" stroke-linecap="round" stroke-linejoin="round"/>
<path id="Path_6" d="M4.66699 9.33329L6.00033 7.99996L4.66699 6.66663" stroke="white" stroke-opacity="0.7" stroke-linecap="round" stroke-linejoin="round"/>
</g>
</g>
</svg>
