<svg width="24" height="25" viewBox="0 0 24 25" fill="none" xmlns="http://www.w3.org/2000/svg">
<g id="Group">
<g id="Group_2">
<path id="Path" d="M4.718 16.479C3.658 15.419 3 13.957 3 12.349V12.349C3 9.132 5.632 6.5 8.849 6.5L12.1 6.521" stroke="white" stroke-width="1.5" stroke-linecap="round" stroke-linejoin="round"/>
<path id="Path_2" d="M16.1675 6.66701L17.0005 5.83301V9.16701" stroke="white" stroke-width="1.5" stroke-linecap="round" stroke-linejoin="round"/>
<path id="Path_3" d="M16.1699 9.16992H17.8299" stroke="white" stroke-width="1.5" stroke-linecap="round" stroke-linejoin="round"/>
<path id="Path_4" d="M20.71 10.8459C20.896 11.4159 21 12.0219 21 12.6509C21 15.8679 18.368 18.4999 15.151 18.4999L8 18.4789L10 20.4789" stroke="white" stroke-width="1.5" stroke-linecap="round" stroke-linejoin="round"/>
<path id="Path_5" d="M17 12.5C14.239 12.5 12 10.261 12 7.5C12 4.739 14.239 2.5 17 2.5C19.762 2.5 22 4.739 22 7.5C22 10.261 19.762 12.5 17 12.5" stroke="white" stroke-width="1.5" stroke-linecap="round" stroke-linejoin="round"/>
</g>
</g>
</svg>
