<svg width="24" height="24" viewBox="0 0 24 24" fill="none" xmlns="http://www.w3.org/2000/svg">
<path d="M15.0618 18.4421C15.6477 19.0281 15.6477 19.9781 15.0618 20.564C14.4758 21.1499 13.5258 21.1499 12.9399 20.564C12.354 19.9781 12.354 19.0281 12.9399 18.4421C13.2212 18.1606 13.6029 18.0024 14.0008 18.0024C14.3988 18.0024 14.7805 18.1606 15.0618 18.4421" stroke="#818385" stroke-width="1.5" stroke-linecap="round" stroke-linejoin="round"/>
<path d="M20.5641 17.4418C21.15 18.0277 21.15 18.9777 20.5641 19.5636C19.9781 20.1496 19.0281 20.1496 18.4422 19.5636C17.8562 18.9777 17.8562 18.0277 18.4422 17.4418C18.7235 17.1602 19.1052 17.0021 19.5031 17.0021C19.9011 17.0021 20.2828 17.1602 20.5641 17.4418" stroke="#818385" stroke-width="1.5" stroke-linecap="round" stroke-linejoin="round"/>
<path d="M15.501 19.3725V14.9018C15.5007 14.4927 15.7501 14.1248 16.1302 13.9734L19.6317 12.5729C19.9398 12.4495 20.289 12.4871 20.5638 12.6731C20.8387 12.8591 21.0032 13.1694 21.0032 13.5013V18.3528" stroke="#818385" stroke-width="1.5" stroke-linecap="round" stroke-linejoin="round"/>
<path d="M20.0033 3.99667H4.10671" stroke="#818385" stroke-width="1.5" stroke-linecap="round" stroke-linejoin="round"/>
<path d="M20.0033 7.99838H3.99667" stroke="#818385" stroke-width="1.5" stroke-linecap="round" stroke-linejoin="round"/>
<path d="M12 12H4.10671" stroke="#818385" stroke-width="1.5" stroke-linecap="round" stroke-linejoin="round"/>
<path d="M8.99875 12H4.03106" stroke="#818385" stroke-width="1.5" stroke-linecap="round" stroke-linejoin="round"/>
<path d="M8.99875 16.0017H3.99667" stroke="#818385" stroke-width="1.5" stroke-linecap="round" stroke-linejoin="round"/>
</svg>
