<svg width="24" height="24" viewBox="0 0 24 24" fill="none" xmlns="http://www.w3.org/2000/svg">
<path fill-rule="evenodd" clip-rule="evenodd" d="M18.9569 21.0037H5.0431C3.93764 21.0037 3.04227 20.1083 3.04227 19.0028V10.9995C3.04227 9.89403 3.93764 8.99866 5.0431 8.99866H18.9569C20.0624 8.99866 20.9577 9.89403 20.9577 10.9995V19.0028C20.9577 20.1083 20.0614 21.0037 18.9569 21.0037Z" stroke="#818385" stroke-width="1.5" stroke-linecap="round" stroke-linejoin="round"/>
<path d="M11.989 15.4404C12.5752 16.0266 12.5752 16.977 11.989 17.5623C11.4028 18.1475 10.4524 18.1485 9.86711 17.5623C9.28087 16.976 9.28087 16.0256 9.86711 15.4404C10.4534 14.8552 11.4028 14.8552 11.989 15.4404" stroke="#818385" stroke-width="1.5" stroke-linecap="round" stroke-linejoin="round"/>
<path d="M14.382 12.7943L12.4292 12.1431V16.5019" stroke="#818385" stroke-width="1.5" stroke-linecap="round" stroke-linejoin="round"/>
<path d="M4.77899 8.99869V7.99827C4.77899 6.89281 5.67437 5.99744 6.77983 5.99744H17.2192C18.3246 5.99744 19.22 6.89281 19.22 7.99827V8.99869" stroke="#818385" stroke-width="1.5" stroke-linecap="round" stroke-linejoin="round"/>
<path d="M6.51372 5.99747V4.99705C6.51372 3.89159 7.40909 2.99622 8.51455 2.99622H15.4865C16.5919 2.99622 17.4873 3.89159 17.4873 4.99705V5.99747" stroke="#818385" stroke-width="1.5" stroke-linecap="round" stroke-linejoin="round"/>
</svg>
