<svg width="24" height="24" viewBox="0 0 24 24" fill="none" xmlns="http://www.w3.org/2000/svg">
<path d="M12.8994 11.9964L19.653 5.23619C19.7721 5.11646 19.839 4.95438 19.8389 4.78547C19.8388 4.61656 19.7717 4.45457 19.6524 4.33499C19.4136 4.09739 18.993 4.09619 18.7518 4.33619L12 11.0964L5.24579 4.33439C5.00579 4.09739 4.58519 4.09859 4.34639 4.33559C4.28712 4.39463 4.2402 4.46488 4.20837 4.54224C4.17654 4.61961 4.16043 4.70254 4.16099 4.78619C4.16099 4.95659 4.22699 5.11619 4.34639 5.23439L11.1 11.9958L4.34699 18.7578C4.22783 18.8777 4.16109 19.04 4.16143 19.2091C4.16176 19.3781 4.22915 19.5402 4.34879 19.6596C4.46459 19.7742 4.62839 19.8402 4.79759 19.8402H4.80119C4.97099 19.8396 5.13479 19.773 5.24819 19.6572L12 12.897L18.7542 19.659C18.8736 19.7778 19.0332 19.8438 19.2024 19.8438C19.2861 19.844 19.3689 19.8277 19.4463 19.7958C19.5236 19.7639 19.5939 19.717 19.6531 19.6579C19.7122 19.5987 19.7591 19.5284 19.791 19.4511C19.8229 19.3737 19.8392 19.2909 19.839 19.2072C19.839 19.0374 19.773 18.8772 19.653 18.759L12.8994 11.9964Z" fill="white"/>
</svg>
